<?xml version="1.0" standalone="no"?>
<!DOCTYPE svg PUBLIC "-//W3C//DTD SVG 20010904//EN"
 "http://www.w3.org/TR/2001/REC-SVG-20010904/DTD/svg10.dtd">
<svg version="1.0" xmlns="http://www.w3.org/2000/svg"
 width="623.000000pt" height="830.000000pt" viewBox="0 0 623.000000 830.000000"
 preserveAspectRatio="xMidYMid meet">

<g transform="translate(0.000000,830.000000) scale(0.100000,-0.100000)"
fill="#000000" stroke="none">
<path d="M3665 8029 c-22 -4 -66 -8 -98 -8 -41 -1 -72 -8 -107 -26 -27 -14
-60 -25 -72 -25 -19 0 -20 -2 -8 -11 18 -12 -104 -3 -130 10 -15 8 -168 23
-415 41 -156 11 -155 11 -332 -52 -91 -32 -123 -47 -123 -60 0 -12 -15 -20
-57 -28 -191 -38 -368 -122 -519 -249 -62 -52 -72 -59 -92 -65 -10 -4 -28 -17
-38 -29 -19 -22 -19 -22 2 -4 43 36 35 15 -18 -45 -30 -35 -114 -143 -187
-240 -72 -97 -136 -180 -142 -184 -6 -3 1 17 15 45 15 28 24 51 21 51 -2 0
-20 -31 -39 -68 -33 -65 -145 -234 -207 -313 -16 -20 -29 -44 -29 -52 0 -9 -4
-18 -9 -21 -4 -3 -64 -96 -132 -208 -91 -147 -133 -207 -156 -221 -36 -21 -46
-34 -12 -17 11 7 22 10 25 8 2 -2 -40 -71 -93 -154 -96 -149 -151 -245 -243
-425 -43 -85 -53 -115 -79 -255 -37 -198 -47 -330 -30 -413 6 -34 14 -60 16
-57 3 2 4 73 4 158 -1 84 3 178 9 208 6 30 12 64 14 75 5 29 38 95 48 95 16 0
8 -34 -14 -59 l-23 -26 24 20 24 20 -6 -105 c-4 -64 -14 -132 -27 -174 -20
-62 -20 -75 -10 -132 7 -35 9 -81 5 -105 -10 -56 10 -44 20 13 7 37 9 39 12
16 5 -34 20 -36 27 -5 3 12 3 -18 0 -66 -4 -81 -3 -89 15 -94 11 -3 21 -13 24
-24 7 -27 34 -23 50 7 l14 27 7 -44 7 -44 17 30 c17 30 17 30 20 -69 1 -55 1
-105 -2 -111 -5 -14 -161 -103 -236 -134 -30 -13 -116 -56 -190 -96 -74 -40
-152 -78 -172 -85 l-38 -12 0 -2119 0 -2119 1114 0 c1053 0 1115 1 1120 18 3
9 14 69 26 132 35 196 42 230 51 230 4 0 11 -5 14 -10 20 -32 174 -85 305
-105 370 -57 727 66 1021 352 203 197 334 441 370 691 16 117 7 317 -20 410
-54 186 -189 369 -344 467 -26 17 -47 32 -47 35 0 3 28 13 63 23 97 29 122 44
170 105 24 31 79 98 122 147 175 203 220 278 261 433 15 53 38 125 52 159 l25
62 51 6 c125 16 221 46 330 104 61 33 145 69 186 81 101 29 151 59 363 218
133 98 219 172 317 271 156 158 183 178 359 267 72 36 131 67 131 69 0 9 -220
-88 -285 -126 -83 -47 -115 -72 -322 -252 -285 -246 -429 -344 -569 -387 -38
-12 -123 -44 -189 -72 -109 -47 -128 -52 -212 -56 -51 -2 -93 -1 -93 3 0 8
146 263 246 430 88 148 156 283 179 355 11 36 19 107 24 207 5 131 9 155 26
176 62 77 73 95 79 122 7 29 7 29 -13 11 -26 -24 -107 -28 -121 -7 -6 11 -12
12 -23 3 -20 -17 -66 -1 -129 45 -29 22 -71 51 -93 64 l-40 23 16 -24 c9 -14
53 -51 99 -82 46 -32 81 -58 78 -58 -3 0 -36 14 -74 30 -37 17 -69 29 -71 26
-7 -6 57 -51 114 -80 81 -40 80 -65 -2 -31 -36 16 -37 16 -30 -6 6 -16 4 -20
-6 -14 -8 5 -2 -5 14 -22 15 -16 27 -32 27 -36 0 -16 -41 -5 -68 18 -17 14
-34 25 -40 25 -5 0 -13 8 -17 18 -6 16 -7 16 -17 -2 -18 -31 -28 1 -29 94 -1
71 -3 79 -10 50 -12 -47 0 -205 19 -255 8 -22 30 -60 48 -84 58 -76 79 -143
79 -251 0 -117 -16 -153 -137 -317 -75 -101 -88 -127 -135 -256 -29 -79 -53
-149 -53 -155 0 -20 -24 -13 -59 16 l-34 28 31 119 c17 66 34 144 38 172 6 49
5 53 -17 61 -17 7 -6 10 50 15 81 7 109 21 164 83 48 54 57 82 55 167 l-1 72
-6 -76 -7 -75 -59 -62 c-56 -59 -95 -79 -95 -48 0 12 -5 12 -30 3 -34 -13
-139 4 -177 29 -30 19 -31 48 -2 41 17 -5 18 -3 7 11 -11 14 -10 15 5 9 39
-15 72 -20 62 -10 -26 26 -196 133 -212 133 -15 0 -15 -2 3 -16 19 -15 19 -16
-1 -8 -86 31 -131 36 -194 24 -148 -29 -176 -17 -168 75 3 33 8 69 12 80 5 14
-1 11 -19 -10 -14 -16 -24 -36 -21 -42 2 -7 -2 -31 -10 -54 -8 -23 -15 -65
-15 -94 0 -43 5 -60 26 -84 38 -45 100 -78 178 -95 92 -19 120 -41 124 -96 2
-24 1 -53 -2 -64 -8 -32 -124 -86 -183 -86 l-46 0 19 22 c20 23 20 23 -31 2
-8 -3 -15 -2 -15 3 0 5 -19 7 -42 5 l-43 -4 25 20 c14 12 20 21 13 22 -6 0
-15 -4 -18 -10 -9 -15 -55 -12 -55 3 0 9 -11 12 -36 9 -34 -4 -36 -3 -31 17 4
17 1 21 -21 21 -50 0 -131 69 -217 185 -139 188 -301 427 -332 490 -55 109
-100 276 -128 466 -16 108 -31 504 -21 545 6 21 9 23 29 14 20 -11 20 -10 -2
8 -23 19 -24 22 -12 78 6 32 20 77 31 98 25 51 16 60 -20 19 -46 -51 -82 -200
-80 -333 1 -84 17 -302 30 -405 14 -106 59 -262 119 -417 60 -153 99 -230 191
-373 38 -60 81 -132 95 -160 38 -78 85 -186 85 -196 0 -31 -99 9 -320 128
-107 58 -210 114 -227 125 -18 11 -33 18 -33 15 0 -6 246 -173 332 -225 37
-23 112 -64 167 -92 76 -38 100 -56 103 -73 2 -16 16 -27 58 -42 48 -17 52
-20 30 -25 -23 -5 -22 -7 18 -23 23 -9 42 -20 42 -23 0 -8 -256 2 -290 11 -24
7 -24 7 -5 -8 19 -16 19 -16 -10 -17 -21 0 -26 -3 -17 -9 10 -6 -5 -13 -45
-24 -37 -9 -49 -16 -33 -17 22 -1 21 -3 -15 -21 -22 -11 -30 -17 -18 -15 30 5
38 -9 15 -26 -37 -26 -33 -37 8 -21 22 9 37 19 35 23 -7 11 44 31 99 40 79 12
200 -7 351 -56 77 -25 152 -53 166 -62 14 -9 47 -31 72 -48 42 -28 56 -32 153
-38 122 -8 142 -15 151 -56 3 -16 9 -27 14 -24 5 3 8 -13 6 -35 -4 -61 -37
-91 -101 -91 -70 1 -128 15 -169 43 -18 12 -53 28 -78 35 -24 7 -57 18 -74 24
-16 5 -64 19 -105 30 -41 11 -91 32 -112 46 -46 30 -50 38 -8 17 16 -9 30 -13
30 -11 0 8 -41 28 -64 31 -11 1 -39 10 -61 19 l-40 17 45 -41 c25 -23 76 -56
114 -75 l69 -34 -104 -3 -104 -3 43 -14 c23 -8 42 -18 42 -23 0 -4 -28 -8 -62
-8 -35 0 -87 -3 -117 -7 -80 -9 -37 -21 123 -34 127 -10 166 -20 166 -39 0 -6
-10 -10 -22 -9 -22 0 -22 1 -3 9 11 5 15 9 9 9 -20 2 -237 -29 -242 -34 -3 -3
19 -6 49 -6 319 -9 388 -27 578 -149 82 -52 107 -88 82 -113 -6 -6 -11 -23
-11 -38 0 -15 -5 -31 -10 -34 -6 -3 -10 -1 -10 4 0 6 -3 11 -7 11 -5 0 -8 -17
-8 -37 0 -31 -3 -37 -18 -35 -14 2 -18 -2 -17 -20 3 -38 1 -44 -24 -56 -32
-14 -36 -8 -23 34 6 18 8 36 5 39 -3 3 -35 -10 -72 -30 -69 -37 -81 -41 -72
-26 3 5 -17 11 -44 15 -114 15 -302 94 -436 182 -69 46 -184 108 -184 100 0
-2 30 -25 66 -51 36 -26 64 -48 62 -50 -7 -6 -231 46 -260 61 -16 8 -53 40
-81 70 -56 60 -127 108 -265 178 -113 58 -242 174 -290 263 l-32 58 6 -40 c3
-22 10 -55 15 -74 4 -19 7 -37 4 -39 -5 -6 -62 74 -102 146 -27 48 -39 86 -51
165 l-17 102 -9 -62 c-5 -35 -12 -63 -16 -63 -13 0 -143 193 -186 274 -41 80
-46 99 -60 221 -6 53 -8 57 -15 30 -4 -16 -10 -56 -14 -88 -4 -32 -9 -57 -11
-54 -5 5 -44 382 -43 422 1 29 1 29 12 -9 10 -31 11 11 9 223 -4 251 -3 264
18 316 12 30 26 55 31 55 4 0 10 -15 12 -32 3 -25 4 -21 5 16 2 35 6 47 15 43
9 -3 12 4 9 28 -7 57 15 48 69 -30 28 -41 53 -75 55 -75 2 0 1 18 -2 40 -12
71 18 46 114 -98 72 -107 121 -166 217 -262 68 -68 128 -121 132 -116 4 4 -18
82 -49 174 -76 223 -109 348 -159 592 -22 113 -43 207 -45 210 -7 7 4 -419 11
-430 9 -14 -2 -12 -29 5 -31 21 -100 120 -133 191 -25 54 -26 63 -21 183 6
133 27 209 69 247 26 23 15 34 -33 34 l-40 0 51 59 52 60 -37 -11 c-65 -18
-62 2 17 109 l73 98 11 113 c9 90 16 119 34 140 11 15 26 37 31 49 15 35 64
60 132 67 33 3 75 15 92 25 17 10 57 25 89 32 32 7 60 16 62 20 3 4 -41 10
-98 14 -82 7 -96 10 -72 17 17 5 51 6 78 2 31 -4 47 -2 47 5 0 6 -6 11 -12 11
-9 0 -8 4 2 10 8 5 40 10 70 11 65 1 102 10 99 24 -1 6 20 16 46 23 92 26 34
23 -147 -8 -196 -33 -318 -46 -283 -30 11 5 56 20 100 34 76 23 77 24 30 20
l-50 -5 65 26 c74 29 95 45 62 45 -24 0 -27 14 -16 68 5 22 14 34 35 41 16 5
29 12 29 15 0 2 -37 2 -82 -1 l-83 -5 25 20 25 20 -25 6 c-14 3 -34 7 -44 8
-65 10 48 69 148 79 69 6 69 6 17 8 -43 1 -52 4 -47 16 4 12 -3 15 -32 16
l-37 1 50 24 c28 13 64 24 80 25 26 0 27 2 10 9 -11 5 -16 9 -11 9 5 1 3 8 -4
16 -11 13 -6 15 31 15 l44 1 -34 18 -34 18 43 17 c28 11 54 14 78 10 34 -7 35
-6 20 9 -9 10 -23 17 -30 17 -7 1 -26 7 -43 15 l-30 15 45 -6 45 -6 -39 29
-39 28 57 3 c31 2 56 7 56 11 0 5 -28 15 -62 22 l-63 14 80 5 80 5 -40 23
c-22 13 -31 20 -20 16 11 -3 43 -8 70 -11 l50 -4 -45 41 c-26 25 -37 39 -25
35 11 -3 33 -9 49 -12 26 -6 27 -4 17 15 -8 15 -8 22 2 25 6 3 2 6 -10 6 -44
2 -22 21 23 21 39 0 51 -5 76 -32 17 -18 39 -33 48 -34 17 -1 17 2 6 41 -12
39 -35 87 -36 74 0 -4 7 -23 16 -44 29 -70 10 -73 -34 -5 -42 65 -66 128 -60
157 2 12 8 11 31 -7 26 -21 39 -49 15 -34 -7 4 -8 3 -4 -5 4 -6 11 -9 16 -6 5
3 21 -13 36 -35 15 -22 28 -39 30 -37 2 2 -6 27 -17 56 -11 30 -18 55 -15 58
5 6 53 -64 101 -147 36 -64 37 -65 31 -25 -18 117 -19 138 -6 130 7 -4 27 -40
45 -78 l33 -71 -4 89 -4 90 30 -85 29 -85 1 92 c0 101 11 121 43 82 18 -22 19
-34 13 -121 -3 -54 -4 -98 -2 -98 2 0 23 56 47 125 24 69 47 125 50 125 4 0
10 -25 14 -57 13 -103 22 -104 30 -1 7 104 19 124 55 88 17 -17 31 -79 28
-125 -3 -46 3 -96 11 -91 5 3 15 36 22 73 14 74 14 73 37 -32 l8 -40 28 48
c15 26 29 47 31 47 5 0 -6 -84 -16 -114 -5 -16 -7 -31 -4 -34 5 -6 115 220
115 237 0 6 5 11 10 11 6 0 10 -36 11 -87 0 -93 11 -91 24 5 4 28 11 52 17 52
7 0 8 -37 3 -110 -4 -60 -5 -110 -2 -110 3 0 21 27 40 61 21 37 37 56 40 48 3
-8 6 1 6 19 1 17 5 32 11 32 10 0 14 -12 28 -83 l7 -38 29 65 c15 37 32 66 36
66 8 0 -5 -79 -24 -145 l-14 -45 45 50 c25 28 48 49 50 46 4 -4 -10 -48 -42
-128 -15 -38 14 -15 68 53 32 40 57 67 57 60 0 -18 -34 -80 -74 -135 -19 -28
-33 -52 -31 -54 11 -11 80 48 130 111 30 38 55 65 55 60 0 -10 -57 -119 -80
-153 -9 -14 -27 -43 -40 -65 -27 -45 -27 -45 65 30 91 74 85 71 74 30 -12 -44
-6 -54 19 -32 25 23 35 21 29 -3 -9 -34 11 -32 53 6 44 40 48 36 24 -21 l-15
-37 31 22 31 22 -6 -38 -7 -39 21 20 c11 11 27 38 35 60 l15 40 -6 -60 -6 -60
22 20 22 19 -21 -53 c-11 -30 -19 -55 -17 -58 3 -2 28 28 57 67 28 38 56 70
61 70 12 0 12 2 -11 -65 -11 -32 -18 -60 -15 -63 2 -3 16 3 31 13 l27 18 -23
-34 c-25 -34 -17 -32 36 8 45 33 50 28 15 -14 -22 -27 -27 -39 -18 -45 9 -6 8
-8 -2 -8 -8 0 -11 -3 -8 -6 4 -4 18 1 31 10 35 22 41 20 22 -9 -23 -35 -13
-31 36 13 41 36 42 33 6 -20 -32 -47 -19 -44 28 7 25 28 43 41 39 30 -4 -11
-9 -36 -12 -55 l-6 -35 31 28 c19 18 31 24 34 16 3 -9 9 -9 28 0 17 8 12 0
-15 -23 -45 -40 -34 -46 25 -16 44 22 50 16 21 -21 -27 -35 -43 -69 -33 -69 5
0 26 23 46 52 38 54 42 54 27 0 -10 -33 -4 -41 18 -19 10 10 11 3 5 -33 l-7
-44 26 17 27 17 25 -50 c42 -82 63 -149 99 -305 19 -83 44 -189 56 -237 14
-56 20 -97 15 -115 -7 -27 -8 -26 -35 32 -34 72 -35 67 -10 -50 10 -49 16 -92
14 -95 -3 -2 -23 16 -45 40 l-39 45 45 -76 c25 -42 45 -81 45 -87 0 -12 -24
-22 -53 -22 -19 0 -18 -3 9 -20 48 -31 79 -121 79 -232 0 -77 -3 -89 -24 -111
-27 -30 -57 -26 -40 5 9 17 8 18 -9 9 -16 -8 -21 -7 -26 6 -6 14 -10 13 -34
-9 -49 -46 -111 -66 -98 -32 4 12 2 15 -9 10 -8 -3 -22 -9 -31 -13 -13 -5 -15
-2 -9 17 7 22 6 22 -33 -6 -22 -16 -38 -32 -36 -36 7 -11 -11 -18 -73 -29 -32
-6 -62 -14 -68 -19 -5 -4 -27 -13 -48 -20 -24 -7 -37 -17 -33 -25 2 -7 -4 -22
-15 -34 -11 -11 -24 -32 -29 -46 -6 -15 -17 -25 -30 -25 -13 0 -20 -7 -20 -20
0 -12 -11 -43 -25 -70 -16 -31 -25 -66 -25 -94 l0 -45 46 19 c25 11 48 20 52
20 3 0 -16 -23 -43 -50 -40 -41 -48 -54 -39 -67 6 -9 16 -19 24 -21 7 -3 10 0
6 7 -4 6 -2 16 4 23 6 7 18 22 26 33 14 19 15 17 9 -26 -7 -58 0 -76 39 -96
17 -8 49 -30 71 -48 40 -33 114 -69 122 -61 3 2 -5 7 -16 11 -28 9 -26 16 10
40 56 37 73 101 45 168 -13 33 -55 58 -118 71 -62 14 -11 36 79 36 56 0 139
-42 159 -82 15 -29 20 -158 6 -158 -5 0 -14 -12 -21 -27 -11 -23 -10 -25 3
-14 8 7 20 10 26 6 5 -3 10 -1 10 4 0 6 6 11 14 11 28 0 68 45 101 113 18 40
52 96 74 126 40 53 52 79 31 66 -12 -8 -13 5 -1 23 4 8 12 12 17 10 5 -1 13
14 18 34 9 35 13 38 55 44 l46 7 -32 9 c-32 8 -50 24 -39 35 3 3 14 0 23 -8
17 -13 17 -13 4 4 -13 17 -12 21 15 43 26 23 27 25 7 21 -25 -5 -34 10 -22 35
7 13 5 15 -11 11 -19 -5 -19 -4 -5 31 8 19 15 48 14 63 l-1 28 -13 -31 c-8
-17 -21 -36 -29 -43 -19 -16 -20 -11 -3 22 11 20 11 44 1 123 -12 106 -4 148
25 141 9 -2 15 -9 13 -15 -1 -7 9 -12 25 -12 l28 1 -21 17 c-12 9 -30 23 -40
30 -13 8 -15 14 -7 18 8 4 6 11 -8 25 -21 21 -26 44 -6 33 8 -6 8 -3 -2 9 -17
21 -8 47 17 47 10 0 39 -11 65 -23 25 -13 44 -20 41 -15 -3 4 -1 8 4 8 26 0
30 -93 6 -130 -13 -20 -11 -20 11 4 23 25 26 36 22 73 -6 55 -29 81 -84 95
-51 12 -54 23 -10 37 62 20 104 23 128 10 23 -12 23 -11 9 6 -8 10 -14 26 -12
37 2 10 0 18 -5 18 -4 0 -15 5 -23 10 -12 8 -11 13 9 33 l22 25 -63 51 c-34
28 -68 51 -75 51 -6 0 -23 4 -38 10 l-26 10 25 42 c18 33 22 48 15 66 -5 13
-6 29 -2 34 3 6 1 8 -4 5 -6 -4 -16 -26 -22 -49 -17 -66 -26 -75 -44 -47 -33
53 -31 66 13 89 46 23 44 35 -8 57 l-36 15 39 14 c65 22 94 82 34 69 l-31 -7
5 47 c3 26 0 90 -6 141 -11 94 -11 94 -39 94 -23 0 -28 4 -28 24 0 30 -9 36
-35 25 -18 -7 -18 -8 5 -8 14 -1 21 -5 15 -9 -5 -4 -10 -14 -10 -22 0 -19 -45
-27 -46 -8 -2 30 4 87 16 150 8 41 9 65 3 62 -6 -4 -7 2 -3 17 21 65 -5 232
-44 287 -11 15 -25 47 -31 72 -17 65 -53 130 -94 169 -20 19 -40 48 -46 65 -7
23 -45 57 -142 130 -81 60 -145 117 -165 145 -18 25 -33 42 -33 37 0 -5 7 -18
17 -28 36 -40 3 -24 -75 37 -191 147 -315 206 -573 274 -119 32 -146 34 -214
20z m-1445 -253 c0 -8 -130 -48 -142 -44 -6 2 18 14 53 26 63 21 89 26 89 18z
m-232 -92 c-47 -26 -109 -76 -207 -170 -188 -179 -197 -176 -28 9 86 94 159
152 224 177 78 31 83 22 11 -16z m7 -142 c-52 -44 -107 -83 -110 -80 -9 9 28
49 63 68 38 20 64 27 47 12z m-139 -84 c-40 -63 -154 -173 -246 -237 -69 -49
-69 -42 6 59 56 76 137 164 179 193 l30 22 -31 -40 c-51 -67 -47 -66 21 2 36
36 68 63 71 60 3 -2 -10 -29 -30 -59z m2804 -632 c0 -8 -61 -48 -66 -43 -3 2
10 14 28 26 35 22 38 23 38 17z m-2260 -246 c-8 -5 -19 -10 -25 -10 -5 0 -3 5
5 10 8 5 20 10 25 10 6 0 3 -5 -5 -10z m-60 -25 c-14 -8 -32 -14 -40 -14 -8 0
-1 7 15 14 39 18 57 18 25 0z m-1058 -751 c103 -32 195 -80 273 -143 59 -47
60 -49 72 -117 l12 -69 -4 60 -5 60 17 -30 c12 -21 17 -55 18 -117 0 -97 7
-95 28 7 l14 69 11 -33 c20 -56 14 -83 -29 -149 -44 -67 -119 -132 -153 -132
-12 0 -35 9 -52 19 l-31 19 -8 129 c-9 158 -29 218 -95 283 -61 62 -126 84
-224 78 -121 -8 -199 -55 -246 -148 -10 -20 -5 -17 24 13 21 21 46 37 59 37
l22 -1 -23 -13 c-20 -10 -2 -12 115 -9 l138 4 52 -30 c62 -37 74 -58 101 -171
12 -47 28 -105 36 -129 15 -40 15 -46 1 -68 -18 -27 -37 -29 -95 -8 -36 13
-41 13 -30 0 6 -7 28 -19 48 -26 29 -10 33 -14 21 -23 -16 -11 -79 -117 -79
-131 0 -5 9 0 20 10 11 10 20 15 20 11 0 -3 18 3 40 14 54 27 51 10 -7 -37
-87 -71 -114 -96 -110 -100 3 -2 28 11 56 29 44 26 54 29 62 17 8 -11 14 -9
35 15 30 34 41 28 24 -13 -16 -41 -38 -57 -85 -66 l-40 -7 39 -34 c59 -51 46
-54 -73 -18 -9 3 13 -22 49 -56 49 -47 59 -60 40 -55 -14 4 -41 9 -60 12 -30
3 -25 -1 30 -26 38 -18 82 -31 106 -31 68 0 124 60 91 98 -35 42 -47 140 -26
217 6 22 32 65 56 97 47 59 82 78 145 78 39 0 48 -43 48 -238 0 -163 0 -163
-27 -199 -19 -25 -24 -38 -15 -41 6 -2 12 -18 12 -35 0 -23 -3 -28 -11 -20 -6
6 -14 51 -17 100 -4 62 -8 79 -12 58 l-7 -30 -11 25 c-9 22 -11 16 -13 -40 -5
-177 -7 -208 -19 -247 -7 -24 -17 -43 -23 -43 -5 0 -6 10 -3 23 4 12 9 69 11
127 2 58 1 87 -2 65 -2 -22 -8 -44 -13 -50 -4 -5 -11 -41 -15 -80 -4 -38 -11
-78 -15 -90 -11 -28 -57 -73 -109 -107 -50 -31 -118 -38 -168 -16 -42 19 -153
87 -196 121 -55 43 -110 159 -137 288 -26 119 -102 378 -154 523 -42 116 -44
144 -13 229 60 164 143 245 307 298 75 24 105 23 202 -7z m3915 -441 c-3 -10
-5 -4 -5 12 0 17 2 24 5 18 2 -7 2 -21 0 -30z m-3497 -139 c0 -2 -12 -4 -27
-4 -21 0 -24 3 -14 9 13 8 41 5 41 -5z m3440 -174 c11 -11 20 -24 20 -29 0
-18 -31 -33 -60 -29 -34 5 -40 -6 -10 -22 29 -15 25 -32 -5 -24 l-26 6 17 -36
c22 -44 13 -54 -29 -33 -31 15 -31 16 -9 23 29 8 28 18 -4 32 -14 7 -23 8 -19
2 11 -17 -58 1 -97 26 -43 28 -56 31 -37 8 11 -13 9 -14 -17 -8 -16 4 -37 11
-46 15 -9 5 -29 14 -44 19 -24 9 -25 9 -14 -5 15 -18 7 -19 -22 -4 -18 10 -20
9 -15 -5 4 -11 1 -16 -11 -15 -25 1 -100 27 -82 28 8 1 33 10 55 22 30 17 51
20 94 16 31 -2 65 -8 76 -12 17 -6 17 -5 5 5 -12 10 -10 11 10 6 124 -30 124
-30 220 1 9 3 -1 10 -25 18 l-40 13 48 1 c35 1 52 -4 67 -19z m-445 -220 c0
-22 -39 -19 -43 3 -3 15 1 18 20 15 12 -2 23 -10 23 -18z m-3740 -454 c39 -82
54 -102 98 -135 99 -74 168 -96 244 -81 78 17 100 9 107 -37 4 -21 15 -148 26
-284 16 -208 24 -267 55 -388 55 -220 82 -355 95 -475 6 -60 20 -157 30 -215
11 -58 20 -112 20 -120 0 -17 -31 24 -177 229 -150 212 -159 226 -100 170 49
-46 53 -47 38 -6 -7 17 -7 26 2 29 7 3 0 10 -15 16 -16 6 -37 25 -48 43 -27
44 -73 185 -65 198 8 13 -87 308 -133 410 l-21 45 0 -36 c-1 -19 4 -61 10 -93
5 -31 9 -62 7 -67 -3 -9 -79 240 -152 496 -47 166 -80 249 -120 304 -18 25
-43 64 -54 86 -18 37 -62 161 -62 174 0 3 38 -33 85 -80 69 -71 92 -103 130
-183z m-31 -583 c36 -72 87 -180 112 -240 48 -113 116 -254 404 -838 95 -192
181 -381 192 -418 10 -38 32 -95 48 -128 17 -32 30 -65 30 -74 0 -22 -45 -19
-115 10 -33 14 -61 25 -62 25 -15 0 12 -36 86 -117 50 -54 88 -99 86 -101 -3
-3 -149 15 -195 24 -14 3 4 -11 40 -31 92 -53 159 -106 202 -162 48 -63 55
-93 29 -117 -28 -25 -67 -18 -184 33 -81 36 -88 38 -62 16 23 -20 25 -25 10
-21 -46 11 -139 26 -142 22 -7 -7 108 -72 186 -106 43 -19 100 -35 138 -38
l64 -7 -40 -54 c-23 -30 -41 -58 -41 -62 0 -4 25 -17 56 -30 65 -27 82 -50 61
-82 -23 -34 -275 -294 -308 -318 -17 -12 -34 -18 -39 -13 -4 5 -24 144 -44
309 -20 165 -42 341 -50 390 -17 107 -88 524 -117 680 -31 172 -131 533 -234
845 -125 378 -142 442 -165 594 -21 133 -23 152 -16 145 2 -2 34 -63 70 -136z
m2366 -168 c0 -9 -6 -12 -15 -9 -8 4 -12 10 -9 15 8 14 24 10 24 -6z m710
-126 c0 -6 -25 -38 -55 -72 -30 -33 -55 -66 -55 -73 0 -8 15 -21 33 -30 17 -9
52 -31 77 -48 25 -17 48 -31 53 -32 4 -1 10 -2 15 -3 4 -1 0 -5 -8 -11 -8 -5
-53 -6 -100 -3 -74 5 -89 9 -115 32 -53 47 -60 50 -159 65 -54 8 -101 18 -104
21 -16 16 31 25 108 19 75 -5 83 -4 67 9 -16 13 -12 15 36 19 44 4 59 10 85
38 34 35 42 56 17 46 -8 -3 -15 -2 -15 3 0 12 64 20 71 9 3 -5 12 -2 19 7 15
18 30 20 30 4z m-638 -1440 c29 -6 91 -29 138 -51 147 -70 247 -192 302 -368
31 -100 33 -306 4 -420 -60 -235 -228 -490 -418 -637 -121 -93 -291 -168 -451
-198 -197 -37 -485 0 -581 76 -47 37 -29 70 43 79 46 6 53 4 66 -17 17 -26
104 -73 135 -73 17 0 20 6 20 40 l0 39 48 -15 c115 -36 131 -39 144 -26 18 18
-4 34 -99 73 -46 18 -83 38 -83 45 0 70 237 650 383 939 51 100 61 128 61 171
0 41 -5 59 -28 88 -33 44 -86 80 -155 106 l-51 20 -6 -28 c-17 -72 -90 -288
-162 -477 -146 -382 -203 -565 -225 -720 l-13 -90 -37 -6 c-20 -3 -37 -3 -37
0 0 7 51 233 136 606 72 310 78 377 36 383 -30 4 -46 -10 -89 -78 -43 -66
-184 -252 -189 -247 -2 1 -8 50 -13 107 -6 58 -13 117 -16 131 -5 20 3 36 46
87 169 201 563 426 804 461 88 13 226 13 287 0z m-1473 -795 c-18 -20 -52 -45
-74 -56 l-39 -20 15 23 c13 20 112 89 128 89 3 0 -11 -16 -30 -36z m-104 -115
c-48 -23 -54 -28 -27 -24 17 3 47 7 65 10 34 5 -67 -30 -118 -41 l-30 -6 39
40 c21 23 51 43 65 45 61 9 62 4 6 -24z m35 -63 c-8 -7 -202 -57 -207 -52 -2
2 9 14 24 27 24 20 42 25 108 27 44 2 78 1 75 -2z m0 -55 c0 -19 -87 -51 -141
-52 -103 -2 -121 -16 -24 -19 l90 -2 -82 -13 c-117 -18 -122 -26 -13 -20 100
5 96 -4 -13 -25 -32 -7 -57 -13 -55 -15 4 -4 204 21 245 31 28 7 28 7 10 -14
-30 -33 -108 -60 -208 -72 -133 -16 -141 -33 -13 -28 74 4 113 10 141 24 l40
20 -16 -28 c-18 -31 -30 -35 -129 -44 -55 -5 -69 -9 -58 -18 17 -13 46 -177
46 -255 -1 -31 -7 -69 -14 -86 -12 -28 -13 -25 -19 60 -3 50 -13 113 -22 140
-9 28 -17 76 -18 107 -2 62 -6 68 -23 40 -9 -14 -6 -42 12 -122 25 -109 32
-271 14 -300 -13 -20 -17 -4 -24 90 -3 41 -10 89 -15 105 -6 17 -17 104 -26
193 -9 90 -19 170 -21 177 -3 7 20 35 52 63 54 48 59 51 128 56 88 7 139 12
149 14 4 1 7 -2 7 -7z m-111 -313 c57 -14 55 -12 41 -37 -12 -23 -36 -28 -43
-8 -3 6 -6 -11 -6 -39 -1 -55 -18 -117 -31 -109 -4 2 -13 39 -19 82 -7 43 -14
91 -18 107 -4 25 -3 28 12 22 10 -3 38 -11 64 -18z m61 -74 c0 -8 -5 -12 -10
-9 -6 4 -8 11 -5 16 9 14 15 11 15 -7z m-29 -209 l-6 -40 -13 53 c-16 72 -15
79 7 51 14 -19 17 -33 12 -64z m-77 -74 c3 -22 17 -53 31 -70 26 -30 26 -30 9
-68 l-18 -38 -3 30 c-2 17 -8 50 -14 75 -25 100 -27 110 -19 110 4 0 10 -18
14 -39z m-29 -42 c12 -19 35 -130 29 -140 -3 -5 -19 -16 -35 -25 -17 -8 -43
-36 -60 -62 l-29 -46 0 60 c0 32 4 54 8 47 4 -6 6 22 4 63 -3 59 -1 74 10 74
9 0 20 -22 31 -62 l16 -63 -6 57 c-8 83 10 134 32 97z"/>
<path d="M1032 5430 c0 -19 -1 -51 -1 -70 l-2 -35 -14 39 c-7 21 -21 46 -30
55 -15 15 -15 13 -2 -19 8 -19 12 -52 10 -72 -5 -38 -17 -49 -27 -25 -2 6 -2
-21 1 -60 3 -40 3 -73 0 -73 -4 0 -13 12 -21 28 -14 25 -15 23 -10 -48 3 -55
2 -70 -6 -55 -8 16 -9 14 -6 -15 3 -19 13 -95 22 -169 16 -125 20 -137 49
-170 59 -68 75 -94 75 -124 0 -28 1 -30 16 -16 12 12 25 14 55 9 49 -9 60 -19
75 -68 l12 -37 1 38 c1 20 5 37 10 37 5 0 7 9 4 20 -5 17 -2 18 28 10 53 -15
45 -5 -27 35 -60 34 -66 39 -50 51 16 11 14 13 -16 16 -30 3 -33 6 -39 43 l-5
40 -17 -35 c-9 -19 -16 -30 -17 -23 0 6 -27 38 -59 71 -37 37 -62 72 -66 92
-10 46 3 140 20 140 8 0 17 5 21 12 5 8 2 9 -9 5 -13 -5 -17 0 -17 21 1 41 31
99 93 180 31 39 55 72 52 72 -2 0 5 25 16 57 10 31 17 58 15 60 -2 2 -15 -12
-30 -32 -31 -40 -46 -44 -47 -12 -1 13 -6 4 -12 -20 -12 -53 -27 -56 -28 -5
-1 20 -5 48 -9 62 -8 23 -9 22 -8 -10z"/>
<path d="M1622 5430 c0 -14 2 -19 5 -12 2 6 2 18 0 25 -3 6 -5 1 -5 -13z"/>
<path d="M1180 5176 c0 -3 9 -10 20 -16 11 -6 20 -8 20 -6 0 3 -9 10 -20 16
-11 6 -20 8 -20 6z"/>
<path d="M1270 5133 c0 -6 -33 -27 -74 -47 -41 -20 -77 -44 -80 -52 -9 -23 -7
-52 4 -59 15 -9 72 20 102 51 29 31 63 102 54 112 -3 3 -6 1 -6 -5z"/>
<path d="M1622 4860 c0 -14 2 -19 5 -12 2 6 2 18 0 25 -3 6 -5 1 -5 -13z"/>
<path d="M1552 4655 c-1 -16 -5 -41 -8 -55 -5 -19 -4 -22 5 -14 7 7 11 29 8
55 -2 30 -4 34 -5 14z"/>
<path d="M1393 4590 c-34 -14 -28 -21 7 -9 17 6 30 13 30 15 0 6 -12 4 -37 -6z"/>
<path d="M1270 3315 c0 -5 5 -17 10 -25 5 -8 10 -10 10 -5 0 6 -5 17 -10 25
-5 8 -10 11 -10 5z"/>
<path d="M1739 1233 l-34 -38 38 34 c20 19 37 36 37 38 0 8 -8 0 -41 -34z"/>
<path d="M4081 8027 c2 -1 15 -11 29 -22 l25 -20 -19 23 c-11 12 -24 22 -29
22 -6 0 -8 -1 -6 -3z"/>
<path d="M3278 8013 c6 -2 18 -2 25 0 6 3 1 5 -13 5 -14 0 -19 -2 -12 -5z"/>
<path d="M3288 7973 c12 -2 32 -2 45 0 12 2 2 4 -23 4 -25 0 -35 -2 -22 -4z"/>
<path d="M1820 7810 c19 -11 40 -19 45 -19 6 0 -6 8 -25 19 -19 11 -39 19 -45
19 -5 0 6 -8 25 -19z"/>
<path d="M1910 7770 c8 -5 20 -10 25 -10 6 0 3 5 -5 10 -8 5 -19 10 -25 10 -5
0 -3 -5 5 -10z"/>
<path d="M1408 7269 c-205 -208 -216 -227 -23 -38 91 89 242 250 233 249 -1
-1 -96 -96 -210 -211z"/>
<path d="M1373 7396 c-44 -50 -90 -116 -80 -116 2 0 17 19 32 41 15 23 45 61
67 85 22 24 38 44 35 44 -3 0 -27 -24 -54 -54z"/>
<path d="M1270 7250 c-6 -11 -8 -20 -6 -20 3 0 10 9 16 20 6 11 8 20 6 20 -3
0 -10 -9 -16 -20z"/>
<path d="M3831 7204 c0 -11 3 -14 6 -6 3 7 2 16 -1 19 -3 4 -6 -2 -5 -13z"/>
<path d="M1380 7180 c-6 -11 -8 -20 -6 -20 3 0 10 9 16 20 6 11 8 20 6 20 -3
0 -10 -9 -16 -20z"/>
<path d="M1220 7159 c-7 -11 -10 -23 -7 -25 2 -2 9 7 15 21 14 30 7 33 -8 4z"/>
<path d="M2838 7163 c7 -3 16 -2 19 1 4 3 -2 6 -13 5 -11 0 -14 -3 -6 -6z"/>
<path d="M5122 7070 c0 -14 2 -19 5 -12 2 6 2 18 0 25 -3 6 -5 1 -5 -13z"/>
<path d="M1163 7044 c-12 -19 -18 -34 -14 -34 11 0 43 49 39 59 -2 5 -13 -7
-25 -25z"/>
<path d="M5296 7043 c-6 -14 -5 -15 5 -6 7 7 10 15 7 18 -3 3 -9 -2 -12 -12z"/>
<path d="M5111 7004 c0 -11 3 -14 6 -6 3 7 2 16 -1 19 -3 4 -6 -2 -5 -13z"/>
<path d="M5245 6958 c-16 -24 -22 -38 -14 -31 15 12 53 73 46 73 -2 0 -17 -19
-32 -42z"/>
<path d="M1089 6973 c-13 -16 -12 -17 4 -4 16 13 21 21 13 21 -2 0 -10 -8 -17
-17z"/>
<path d="M5137 6833 c-4 -3 -6 -25 -6 -47 l2 -41 7 45 c8 48 7 54 -3 43z"/>
<path d="M1029 6673 c-13 -16 -12 -17 4 -4 16 13 21 21 13 21 -2 0 -10 -8 -17
-17z"/>
<path d="M989 6643 c-13 -16 -12 -17 4 -4 16 13 21 21 13 21 -2 0 -10 -8 -17
-17z"/>
<path d="M3747 6573 c18 -2 50 -2 70 0 21 2 7 4 -32 4 -38 0 -55 -2 -38 -4z"/>
<path d="M3853 6543 c9 -2 25 -2 35 0 9 3 1 5 -18 5 -19 0 -27 -2 -17 -5z"/>
<path d="M3758 6533 c12 -2 32 -2 45 0 12 2 2 4 -23 4 -25 0 -35 -2 -22 -4z"/>
<path d="M3403 6395 c-33 -7 -74 -21 -90 -30 -27 -15 -27 -16 -3 -10 79 17
216 38 304 44 l101 8 -125 1 c-70 0 -152 -6 -187 -13z"/>
<path d="M3748 6393 c6 -2 18 -2 25 0 6 3 1 5 -13 5 -14 0 -19 -2 -12 -5z"/>
<path d="M3826 6376 c17 -8 53 -18 80 -24 28 -6 88 -22 135 -35 46 -14 111
-27 144 -31 l60 -5 -66 12 c-36 7 -82 21 -103 31 -35 17 -236 66 -266 66 -8
-1 -1 -7 16 -14z"/>
<path d="M4278 6273 c6 -2 18 -2 25 0 6 3 1 5 -13 5 -14 0 -19 -2 -12 -5z"/>
<path d="M4358 6263 c7 -3 16 -2 19 1 4 3 -2 6 -13 5 -11 0 -14 -3 -6 -6z"/>
<path d="M4398 6253 c7 -3 16 -2 19 1 4 3 -2 6 -13 5 -11 0 -14 -3 -6 -6z"/>
<path d="M3393 6229 c-39 -4 -86 -15 -105 -24 -18 -8 -24 -13 -13 -10 11 2 73
9 137 15 207 18 371 -21 620 -146 70 -35 92 -38 68 -9 -19 22 -7 19 78 -24
147 -74 297 -133 375 -148 43 -8 80 -13 83 -11 2 2 -47 24 -109 47 -61 24
-213 84 -337 134 -352 140 -390 154 -465 165 -105 16 -251 21 -332 11z"/>
<path d="M5352 6095 c20 -14 42 -33 47 -43 6 -9 11 -12 11 -5 0 13 -69 73 -85
73 -5 0 7 -11 27 -25z"/>
<path d="M5283 6082 c9 -10 17 -27 17 -37 0 -10 3 -16 6 -12 11 11 -5 55 -23
61 -16 6 -16 6 0 -12z"/>
<path d="M3608 6043 c12 -2 30 -2 40 0 9 3 -1 5 -23 4 -22 0 -30 -2 -17 -4z"/>
<path d="M3688 6033 c6 -2 18 -2 25 0 6 3 1 5 -13 5 -14 0 -19 -2 -12 -5z"/>
<path d="M3784 6005 c33 -14 61 -23 63 -21 5 4 -96 46 -111 46 -6 -1 16 -12
48 -25z"/>
<path d="M3480 6015 c0 -3 16 -31 35 -61 19 -30 35 -57 35 -59 0 -3 -57 -3
-127 -1 -131 4 -166 0 -141 -15 11 -8 -38 -13 -114 -12 -10 0 -18 -4 -18 -8 0
-12 -42 3 -85 29 -30 19 -36 21 -25 7 13 -17 13 -18 0 -13 -53 19 -58 15 -13
-10 49 -28 83 -55 83 -65 0 -3 -32 -11 -71 -17 -40 -7 -66 -16 -59 -20 7 -4
-6 -10 -32 -15 l-43 -8 35 -7 35 -6 -40 -8 c-65 -12 -75 -17 -72 -29 1 -8 -13
-12 -40 -12 -55 0 -64 -21 -15 -34 176 -47 198 -50 166 -25 -17 14 -11 15 76
10 83 -5 91 -4 65 8 -29 12 -27 13 47 19 43 4 83 5 90 3 37 -12 78 -15 73 -6
-3 6 2 10 12 10 15 0 16 2 3 11 -15 11 -3 10 68 -8 25 -6 26 -5 12 12 -14 17
-13 18 25 11 22 -4 60 -10 85 -13 25 -3 62 -14 82 -24 27 -14 38 -15 41 -6 2
7 12 -2 23 -20 12 -20 28 -33 44 -35 14 -2 26 -10 28 -20 5 -27 73 -94 118
-116 37 -19 78 -54 114 -98 35 -43 71 -108 66 -120 -3 -8 11 -19 40 -30 24 -9
44 -21 44 -25 0 -5 32 -9 71 -9 42 0 68 4 64 10 -3 5 7 16 22 24 20 11 23 15
11 16 -29 0 -21 34 13 54 34 20 33 34 -1 16 -31 -16 -38 -4 -12 21 13 11 20
24 17 30 -4 5 3 21 14 35 31 40 28 64 -5 33 l-25 -24 15 30 c28 54 21 75 -46
137 -35 32 -68 56 -74 54 -6 -2 -17 1 -23 7 -6 6 -11 8 -11 3 0 -4 -13 1 -30
11 -16 9 -30 21 -30 25 0 4 -4 8 -10 8 -5 0 -35 16 -66 36 -63 40 -104 58
-153 68 -30 5 -32 4 -20 -10 12 -14 9 -14 -26 1 -22 9 -50 21 -62 25 -31 13
-127 88 -211 165 -39 37 -72 64 -72 60z m727 -811 c-3 -3 -12 -4 -19 -1 -8 3
-5 6 6 6 11 1 17 -2 13 -5z"/>
<path d="M5368 5999 c23 -7 32 -15 28 -24 -3 -9 0 -12 9 -9 7 3 15 -2 18 -13
3 -12 5 -13 6 -3 1 26 -25 50 -60 55 l-34 5 33 -11z"/>
<path d="M544 5904 c-18 -14 -18 -15 4 -4 12 6 22 13 22 15 0 8 -5 6 -26 -11z"/>
<path d="M484 5858 l-29 -33 33 29 c30 28 37 36 29 36 -2 0 -16 -15 -33 -32z"/>
<path d="M5471 5810 c-13 -11 -19 -20 -14 -20 6 0 18 9 28 20 23 25 17 25 -14
0z"/>
<path d="M440 5799 c-7 -11 -10 -23 -7 -25 2 -2 9 7 15 21 14 30 7 33 -8 4z"/>
<path d="M4043 5742 c20 -23 37 -47 37 -54 0 -6 3 -9 6 -5 9 9 -32 70 -58 86
-16 10 -11 1 15 -27z"/>
<path d="M5440 5756 c0 -2 8 -10 18 -17 15 -13 16 -12 3 4 -13 16 -21 21 -21
13z"/>
<path d="M5471 5704 c0 -11 3 -14 6 -6 3 7 2 16 -1 19 -3 4 -6 -2 -5 -13z"/>
<path d="M3537 5649 c7 -7 15 -10 18 -7 3 3 -2 9 -12 12 -14 6 -15 5 -6 -5z"/>
<path d="M3380 5570 c14 -4 36 -8 50 -8 22 0 22 1 -5 8 -16 4 -39 8 -50 8 -16
0 -15 -2 5 -8z"/>
<path d="M4988 5553 c6 -2 18 -2 25 0 6 3 1 5 -13 5 -14 0 -19 -2 -12 -5z"/>
<path d="M3295 5519 c-16 -10 -47 -19 -68 -19 -26 0 -36 -4 -31 -11 6 -11 35
-9 124 6 26 5 31 4 20 -4 -8 -6 -24 -11 -35 -11 -27 0 -70 -23 -71 -38 -3 -25
-5 -27 -17 -12 -9 11 -34 15 -97 15 -47 1 -88 -3 -92 -9 -3 -5 -24 -2 -50 9
-66 27 -77 28 -35 5 43 -24 45 -28 15 -39 -19 -7 -13 -10 32 -15 134 -17 136
-17 114 -33 -14 -11 -45 -13 -127 -11 -59 2 -107 1 -107 -2 0 -3 30 -14 66
-25 54 -16 62 -21 42 -26 -12 -4 -45 -7 -72 -8 -70 -1 -52 -10 34 -16 41 -3
76 -7 77 -9 2 -2 -18 -7 -44 -11 -42 -7 -45 -9 -23 -16 l25 -7 -23 -7 c-15 -5
-20 -10 -12 -15 7 -4 -12 -16 -45 -30 -30 -12 -54 -24 -53 -26 2 -2 37 4 78
12 75 16 121 34 152 61 15 13 16 7 20 -82 2 -74 7 -99 19 -108 9 -7 23 -27 33
-44 22 -44 28 -41 20 10 l-7 42 30 -40 c17 -22 47 -58 67 -80 30 -32 33 -34
19 -10 -18 29 -18 29 2 21 34 -15 118 -36 140 -36 17 1 16 3 -7 16 -40 21 -35
27 7 9 81 -35 102 -43 130 -49 24 -6 28 -5 18 5 -21 21 -15 29 21 29 55 0 51
17 -7 25 -28 5 -44 10 -34 12 9 3 58 -3 109 -11 50 -9 93 -14 96 -12 4 5 -127
46 -146 46 -6 0 -14 5 -18 12 -7 11 28 8 96 -8 20 -4 22 -3 10 5 -11 8 1 11
50 11 81 0 95 8 92 54 -4 49 17 47 62 -6 34 -40 36 -41 30 -15 -7 30 -3 32 28
16 16 -9 19 -8 13 1 -8 14 20 11 60 -6 12 -4 7 4 -12 20 -18 15 -33 32 -33 37
0 5 21 10 48 10 l47 2 -47 6 c-52 8 -75 21 -37 22 22 0 23 1 4 9 -16 7 -14 9
15 9 52 2 17 20 -40 22 -25 0 -54 5 -65 10 -15 7 -11 8 15 3 25 -4 31 -2 20 5
-10 7 -3 11 30 13 43 3 44 4 15 12 -89 23 -107 42 -53 53 29 6 26 8 -43 28
-84 24 -112 38 -148 71 -14 13 -44 30 -66 38 -107 39 -160 66 -157 81 2 8 -12
24 -30 35 -45 27 -150 27 -193 -1z m196 -25 c12 -15 11 -16 -11 -8 -14 5 -44
7 -68 6 -27 -1 -41 1 -37 8 11 17 101 12 116 -6z m-61 -59 c0 -9 -73 -24 -84
-17 -6 4 5 10 24 13 49 9 60 10 60 4z m167 -100 c84 -42 103 -64 129 -163 14
-52 15 -70 6 -96 -10 -28 -10 -29 3 -12 8 11 15 27 15 35 1 11 9 6 25 -14 43
-53 28 -74 -45 -65 -36 5 -51 3 -54 -7 -4 -9 -23 -13 -58 -12 -52 2 -52 2 -13
8 36 6 32 7 -35 13 -41 3 -95 14 -119 24 l-45 18 41 17 c56 24 83 61 83 115 0
106 -152 182 -247 125 -40 -25 -58 -90 -36 -133 15 -32 81 -88 149 -130 29
-17 39 -26 24 -23 -37 10 -147 83 -175 117 -13 16 -30 47 -36 69 -11 35 -10
43 8 67 43 58 142 94 241 88 48 -3 82 -13 139 -41z m-147 -70 c0 -19 -20 -29
-32 -17 -15 15 -2 43 17 36 8 -3 15 -12 15 -19z"/>
<path d="M5210 5533 c0 -7 10 -22 23 -35 12 -13 17 -17 11 -8 -6 8 -16 24 -22
35 -6 11 -12 15 -12 8z"/>
<path d="M5300 5520 c-9 -6 -10 -10 -3 -10 6 0 15 5 18 10 8 12 4 12 -15 0z"/>
<path d="M2610 5270 c8 -5 22 -9 30 -9 10 0 8 3 -5 9 -27 12 -43 12 -25 0z"/>
<path d="M2668 5253 c7 -3 16 -2 19 1 4 3 -2 6 -13 5 -11 0 -14 -3 -6 -6z"/>
<path d="M5357 5253 c-4 -3 -7 -18 -6 -32 1 -26 1 -25 10 3 9 31 7 41 -4 29z"/>
<path d="M5288 5223 c7 -3 16 -2 19 1 4 3 -2 6 -13 5 -11 0 -14 -3 -6 -6z"/>
<path d="M4070 5180 c8 -5 20 -10 25 -10 6 0 3 5 -5 10 -8 5 -19 10 -25 10 -5
0 -3 -5 5 -10z"/>
<path d="M5341 5174 c0 -11 3 -14 6 -6 3 7 2 16 -1 19 -3 4 -6 -2 -5 -13z"/>
<path d="M4118 5133 c12 -2 32 -2 45 0 12 2 2 4 -23 4 -25 0 -35 -2 -22 -4z"/>
<path d="M2931 5044 c0 -11 3 -14 6 -6 3 7 2 16 -1 19 -3 4 -6 -2 -5 -13z"/>
<path d="M5271 5027 c-13 -21 -12 -21 5 -5 10 10 16 20 13 22 -3 3 -11 -5 -18
-17z"/>
<path d="M2941 4974 c0 -11 3 -14 6 -6 3 7 2 16 -1 19 -3 4 -6 -2 -5 -13z"/>
<path d="M2972 4940 c0 -19 2 -27 5 -17 2 9 2 25 0 35 -3 9 -5 1 -5 -18z"/>
<path d="M5231 4927 c-13 -21 -12 -21 5 -5 10 10 16 20 13 22 -3 3 -11 -5 -18
-17z"/>
<path d="M3041 4925 c0 -11 4 -29 9 -40 l9 -20 0 20 c0 11 -4 29 -9 40 l-9 20
0 -20z"/>
<path d="M3130 4920 c8 -5 20 -10 25 -10 6 0 3 5 -5 10 -8 5 -19 10 -25 10 -5
0 -3 -5 5 -10z"/>
<path d="M3196 4895 c17 -7 44 -16 60 -20 25 -4 24 -3 -6 8 -19 8 -46 17 -60
20 -19 5 -17 3 6 -8z"/>
<path d="M3909 4873 c-13 -16 -12 -17 4 -4 16 13 21 21 13 21 -2 0 -10 -8 -17
-17z"/>
<path d="M4091 4834 c0 -11 3 -14 6 -6 3 7 2 16 -1 19 -3 4 -6 -2 -5 -13z"/>
<path d="M3120 4836 c0 -11 30 -66 36 -66 2 0 -3 15 -12 33 -19 36 -24 44 -24
33z"/>
<path d="M3792 4808 c-13 -14 -22 -17 -22 -10 0 10 -8 8 -27 -6 -51 -35 -57
-37 -49 -17 5 13 -3 11 -31 -11 l-38 -29 18 28 c21 33 13 34 -55 4 -29 -13
-65 -27 -79 -30 -25 -6 -97 3 -144 18 l-20 7 20 -17 c20 -17 19 -17 -7 -11
-14 3 -34 9 -45 12 -10 3 15 -13 55 -36 48 -28 70 -45 62 -50 -8 -5 8 -12 39
-19 74 -16 102 -14 95 4 -5 12 2 15 30 15 21 0 50 7 66 15 16 8 33 14 38 13
12 -4 68 45 82 73 7 13 22 34 33 47 27 29 8 29 -21 0z"/>
<path d="M3378 4793 c17 -2 47 -2 65 0 17 2 3 4 -33 4 -36 0 -50 -2 -32 -4z"/>
<path d="M3260 4737 c15 -20 108 -77 125 -77 6 0 -14 14 -44 30 -30 17 -64 38
-75 48 -20 16 -20 16 -6 -1z"/>
<path d="M4271 4655 c0 -16 4 -39 9 -50 7 -16 9 -14 9 15 0 19 -4 42 -9 50 -7
11 -10 8 -9 -15z"/>
<path d="M4152 4591 c-7 -35 -11 -65 -9 -67 8 -8 29 82 25 107 -2 15 -8 0 -16
-40z"/>
<path d="M4576 4477 c3 -10 9 -15 12 -12 3 3 0 11 -7 18 -10 9 -11 8 -5 -6z"/>
<path d="M3840 4371 c16 -31 12 -43 -11 -36 -14 5 -19 3 -15 -3 4 -7 -8 -12
-31 -14 -27 -3 -33 -6 -20 -11 9 -4 25 -10 35 -14 11 -5 -3 -9 -38 -13 -31 -3
-55 -10 -55 -16 0 -7 -11 -21 -25 -33 l-25 -21 40 16 c50 20 131 19 220 -3 64
-16 70 -20 73 -45 3 -28 22 -40 22 -15 0 20 -73 130 -121 182 -43 47 -67 59
-49 26z"/>
<path d="M3395 4065 c-53 -30 -57 -34 -32 -35 30 0 43 -20 32 -47 -7 -18 -14
-83 -9 -83 2 0 19 24 38 53 20 30 52 62 74 75 22 12 45 29 52 38 14 16 7 15
-60 -2 -21 -5 -44 11 -36 25 10 16 8 15 -59 -24z"/>
<path d="M4521 4054 c0 -11 3 -14 6 -6 3 7 2 16 -1 19 -3 4 -6 -2 -5 -13z"/>
<path d="M3672 3100 c0 -19 2 -27 5 -17 2 9 2 25 0 35 -3 9 -5 1 -5 -18z"/>
<path d="M3440 3086 c0 -3 9 -10 20 -16 11 -6 20 -8 20 -6 0 3 -9 10 -20 16
-11 6 -20 8 -20 6z"/>
<path d="M2740 2944 c0 -7 71 -36 76 -31 2 2 -14 11 -36 20 -22 8 -40 13 -40
11z"/>
<path d="M2865 2870 c11 -5 29 -8 40 -8 16 0 15 2 -5 8 -34 11 -60 11 -35 0z"/>
<path d="M3740 2747 c0 -2 19 -19 43 -37 23 -19 36 -26 28 -17 -15 19 -71 61
-71 54z"/>
<path d="M3700 2441 c-7 -15 -7 -21 0 -21 12 0 25 28 17 36 -3 3 -10 -4 -17
-15z"/>
<path d="M5660 2420 c0 -31 -55 -196 -122 -363 -179 -451 -379 -1064 -420
-1285 -21 -114 -135 -262 -215 -278 -27 -5 -34 -2 -50 22 -27 41 -24 174 6
281 22 77 108 262 201 431 31 57 40 84 40 122 0 43 -5 53 -45 98 -43 48 -128
112 -148 112 -5 0 -11 -9 -14 -20 -3 -11 -7 -20 -9 -20 -2 0 -35 16 -73 35
-121 62 -248 58 -391 -11 -58 -29 -94 -57 -160 -123 -95 -96 -152 -189 -197
-316 -25 -72 -27 -94 -28 -215 0 -115 3 -145 23 -200 57 -166 176 -242 339
-219 78 11 131 37 193 95 l47 43 23 -56 c75 -182 238 -217 370 -81 l40 40 0
-38 c0 -96 36 -157 103 -175 33 -9 47 -7 78 7 42 19 162 137 229 227 38 51 45
56 53 40 36 -68 107 -106 197 -105 155 1 271 91 362 277 44 91 72 179 64 201
-12 31 -36 10 -82 -73 -64 -116 -187 -242 -258 -266 -69 -23 -91 -21 -116 11
-20 24 -22 35 -17 102 3 41 17 112 32 158 27 86 152 342 195 400 21 28 25 45
25 102 0 61 -3 72 -30 105 -17 21 -59 54 -95 74 l-64 37 -72 -167 c-138 -319
-173 -439 -181 -622 l-6 -129 -40 -51 c-51 -64 -136 -145 -160 -153 -36 -11
-41 10 -23 107 36 194 213 669 419 1120 l35 76 123 -5 c168 -6 286 25 362 96
24 23 27 33 27 87 0 53 -4 67 -31 103 -17 23 -34 42 -39 42 -5 0 -24 -22 -44
-48 -86 -118 -181 -178 -313 -196 -29 -4 -43 -3 -43 5 0 7 30 78 67 158 52
113 68 159 71 204 l5 58 -54 52 c-48 46 -149 107 -178 107 -6 0 -11 -9 -11
-20z m-975 -1099 c88 -50 88 -52 48 -156 -47 -119 -91 -296 -99 -396 -7 -79
-7 -80 -53 -121 -111 -99 -248 -114 -335 -37 -61 53 -88 184 -63 305 37 176
179 358 324 414 70 28 119 25 178 -9z"/>
<path d="M4464 1865 c0 -71 1 -99 3 -62 2 37 2 96 0 130 -2 34 -3 4 -3 -68z"/>
<path d="M4960 1940 c0 -47 -1 -50 -19 -40 -56 29 -111 -9 -111 -76 0 -70 49
-107 104 -78 19 9 26 9 30 1 2 -7 5 45 5 116 1 70 -1 127 -4 127 -3 0 -5 -23
-5 -50z m-18 -57 c29 -26 25 -96 -7 -121 -45 -35 -95 -1 -95 65 0 60 61 94
102 56z"/>
<path d="M4156 1961 c-30 -33 -17 -72 32 -99 51 -29 67 -54 52 -83 -15 -27
-49 -39 -79 -27 -13 5 -26 6 -29 4 -3 -3 6 -10 20 -15 59 -22 121 24 102 77
-5 15 -28 37 -54 52 -70 41 -65 106 7 98 18 -2 33 0 33 4 0 17 -67 8 -84 -11z"/>
<path d="M4310 1900 c-11 -7 -6 -8 17 -4 37 7 63 -8 63 -37 0 -14 -7 -19 -28
-19 -64 0 -97 -63 -49 -95 19 -12 29 -13 55 -3 32 12 32 13 32 78 0 38 -5 71
-12 78 -14 14 -57 15 -78 2z m78 -102 c-5 -54 -69 -73 -84 -25 -8 26 26 57 63
57 21 0 24 -4 21 -32z"/>
<path d="M4514 1895 c22 -65 60 -155 65 -155 5 0 49 101 67 155 17 50 -15 -6
-36 -62 -12 -35 -26 -63 -30 -63 -4 0 -17 28 -30 63 -12 34 -27 67 -33 72 -7
7 -8 4 -3 -10z"/>
<path d="M4696 1901 c-3 -4 6 -6 19 -3 30 5 55 -13 55 -39 0 -14 -7 -19 -30
-19 -17 0 -39 -9 -50 -20 -45 -45 -8 -95 58 -77 l37 10 -3 66 c-2 36 -8 72
-14 79 -12 14 -64 16 -72 3z m72 -103 c-5 -54 -69 -73 -84 -25 -8 26 26 57 63
57 21 0 24 -4 21 -32z"/>
<path d="M5042 1887 c-28 -29 -30 -95 -4 -126 42 -53 132 -13 132 59 0 79 -78
120 -128 67z m84 5 c35 -23 44 -88 16 -122 -40 -50 -112 -14 -112 56 0 54 56
93 96 66z"/>
<path d="M5245 1900 c-3 -5 -11 -7 -18 -4 -9 3 -11 -16 -7 -78 4 -71 5 -75 7
-28 4 80 11 100 36 110 16 6 17 9 5 9 -9 1 -19 -3 -23 -9z"/>
</g>
</svg>
